<mxfile host="Electron" modified="2024-06-02T14:05:34.203Z" agent="Mozilla/5.0 (Windows NT 10.0; Win64; x64) AppleWebKit/537.36 (KHTML, like Gecko) draw.io/24.4.8 Chrome/124.0.6367.207 Electron/30.0.6 Safari/537.36" etag="fn9tWrbXpuBvcS7lUnod" version="24.4.8" type="device">
  <diagram name="Página-1" id="C-dRUmIwSkXVSL-PCZjj">
    <mxGraphModel dx="864" dy="516" grid="1" gridSize="10" guides="1" tooltips="1" connect="1" arrows="1" fold="1" page="1" pageScale="1" pageWidth="827" pageHeight="1169" math="0" shadow="0">
      <root>
        <mxCell id="0" />
        <mxCell id="1" parent="0" />
        <mxCell id="uVfnnB60yYQLE5M0ZB12-4" value="Multimidia" style="swimlane;fontStyle=1;align=center;verticalAlign=top;childLayout=stackLayout;horizontal=1;startSize=26;horizontalStack=0;resizeParent=1;resizeParentMax=0;resizeLast=0;collapsible=1;marginBottom=0;whiteSpace=wrap;html=1;" vertex="1" parent="1">
          <mxGeometry x="22.5" y="360" width="195" height="130" as="geometry">
            <mxRectangle x="22.5" y="360" width="90" height="30" as="alternateBounds" />
          </mxGeometry>
        </mxCell>
        <mxCell id="uVfnnB60yYQLE5M0ZB12-5" value="+ tocar()" style="text;strokeColor=none;fillColor=none;align=left;verticalAlign=top;spacingLeft=4;spacingRight=4;overflow=hidden;rotatable=0;points=[[0,0.5],[1,0.5]];portConstraint=eastwest;whiteSpace=wrap;html=1;" vertex="1" parent="uVfnnB60yYQLE5M0ZB12-4">
          <mxGeometry y="26" width="195" height="26" as="geometry" />
        </mxCell>
        <mxCell id="uVfnnB60yYQLE5M0ZB12-7" value="+ pausar()" style="text;strokeColor=none;fillColor=none;align=left;verticalAlign=top;spacingLeft=4;spacingRight=4;overflow=hidden;rotatable=0;points=[[0,0.5],[1,0.5]];portConstraint=eastwest;whiteSpace=wrap;html=1;" vertex="1" parent="uVfnnB60yYQLE5M0ZB12-4">
          <mxGeometry y="52" width="195" height="26" as="geometry" />
        </mxCell>
        <mxCell id="uVfnnB60yYQLE5M0ZB12-37" value="+ selecionarMusica(String musica)" style="text;strokeColor=none;fillColor=none;align=left;verticalAlign=top;spacingLeft=4;spacingRight=4;overflow=hidden;rotatable=0;points=[[0,0.5],[1,0.5]];portConstraint=eastwest;whiteSpace=wrap;html=1;" vertex="1" parent="uVfnnB60yYQLE5M0ZB12-4">
          <mxGeometry y="78" width="195" height="26" as="geometry" />
        </mxCell>
        <mxCell id="uVfnnB60yYQLE5M0ZB12-41" value="+ selecionarVideo(String video)" style="text;strokeColor=none;fillColor=none;align=left;verticalAlign=top;spacingLeft=4;spacingRight=4;overflow=hidden;rotatable=0;points=[[0,0.5],[1,0.5]];portConstraint=eastwest;whiteSpace=wrap;html=1;" vertex="1" parent="uVfnnB60yYQLE5M0ZB12-4">
          <mxGeometry y="104" width="195" height="26" as="geometry" />
        </mxCell>
        <mxCell id="uVfnnB60yYQLE5M0ZB12-8" value="&lt;div&gt;Telefone&lt;/div&gt;" style="swimlane;fontStyle=1;align=center;verticalAlign=top;childLayout=stackLayout;horizontal=1;startSize=26;horizontalStack=0;resizeParent=1;resizeParentMax=0;resizeLast=0;collapsible=1;marginBottom=0;whiteSpace=wrap;html=1;" vertex="1" parent="1">
          <mxGeometry x="320" y="360" width="160" height="130" as="geometry">
            <mxRectangle x="310" y="210" width="140" height="40" as="alternateBounds" />
          </mxGeometry>
        </mxCell>
        <mxCell id="uVfnnB60yYQLE5M0ZB12-9" value="+ ligar(String numero)" style="text;strokeColor=none;fillColor=none;align=left;verticalAlign=top;spacingLeft=4;spacingRight=4;overflow=hidden;rotatable=0;points=[[0,0.5],[1,0.5]];portConstraint=eastwest;whiteSpace=wrap;html=1;" vertex="1" parent="uVfnnB60yYQLE5M0ZB12-8">
          <mxGeometry y="26" width="160" height="26" as="geometry" />
        </mxCell>
        <mxCell id="uVfnnB60yYQLE5M0ZB12-11" value="+ atender()" style="text;strokeColor=none;fillColor=none;align=left;verticalAlign=top;spacingLeft=4;spacingRight=4;overflow=hidden;rotatable=0;points=[[0,0.5],[1,0.5]];portConstraint=eastwest;whiteSpace=wrap;html=1;" vertex="1" parent="uVfnnB60yYQLE5M0ZB12-8">
          <mxGeometry y="52" width="160" height="26" as="geometry" />
        </mxCell>
        <mxCell id="uVfnnB60yYQLE5M0ZB12-42" value="+ encerrarChamada()" style="text;strokeColor=none;fillColor=none;align=left;verticalAlign=top;spacingLeft=4;spacingRight=4;overflow=hidden;rotatable=0;points=[[0,0.5],[1,0.5]];portConstraint=eastwest;whiteSpace=wrap;html=1;" vertex="1" parent="uVfnnB60yYQLE5M0ZB12-8">
          <mxGeometry y="78" width="160" height="26" as="geometry" />
        </mxCell>
        <mxCell id="uVfnnB60yYQLE5M0ZB12-43" value="+ iniciarCorreioDeVoz()" style="text;strokeColor=none;fillColor=none;align=left;verticalAlign=top;spacingLeft=4;spacingRight=4;overflow=hidden;rotatable=0;points=[[0,0.5],[1,0.5]];portConstraint=eastwest;whiteSpace=wrap;html=1;" vertex="1" parent="uVfnnB60yYQLE5M0ZB12-8">
          <mxGeometry y="104" width="160" height="26" as="geometry" />
        </mxCell>
        <mxCell id="uVfnnB60yYQLE5M0ZB12-12" value="Google" style="swimlane;fontStyle=1;align=center;verticalAlign=top;childLayout=stackLayout;horizontal=1;startSize=26;horizontalStack=0;resizeParent=1;resizeParentMax=0;resizeLast=0;collapsible=1;marginBottom=0;whiteSpace=wrap;html=1;" vertex="1" parent="1">
          <mxGeometry x="600" y="360" width="160" height="104" as="geometry" />
        </mxCell>
        <mxCell id="uVfnnB60yYQLE5M0ZB12-13" value="+ exibirPagina(String url)" style="text;strokeColor=none;fillColor=none;align=left;verticalAlign=top;spacingLeft=4;spacingRight=4;overflow=hidden;rotatable=0;points=[[0,0.5],[1,0.5]];portConstraint=eastwest;whiteSpace=wrap;html=1;" vertex="1" parent="uVfnnB60yYQLE5M0ZB12-12">
          <mxGeometry y="26" width="160" height="26" as="geometry" />
        </mxCell>
        <mxCell id="uVfnnB60yYQLE5M0ZB12-15" value="+ adicionarNovaAba()" style="text;strokeColor=none;fillColor=none;align=left;verticalAlign=top;spacingLeft=4;spacingRight=4;overflow=hidden;rotatable=0;points=[[0,0.5],[1,0.5]];portConstraint=eastwest;whiteSpace=wrap;html=1;" vertex="1" parent="uVfnnB60yYQLE5M0ZB12-12">
          <mxGeometry y="52" width="160" height="26" as="geometry" />
        </mxCell>
        <mxCell id="uVfnnB60yYQLE5M0ZB12-44" value="+ atualizarPagina()" style="text;strokeColor=none;fillColor=none;align=left;verticalAlign=top;spacingLeft=4;spacingRight=4;overflow=hidden;rotatable=0;points=[[0,0.5],[1,0.5]];portConstraint=eastwest;whiteSpace=wrap;html=1;" vertex="1" parent="uVfnnB60yYQLE5M0ZB12-12">
          <mxGeometry y="78" width="160" height="26" as="geometry" />
        </mxCell>
        <mxCell id="uVfnnB60yYQLE5M0ZB12-20" value="«interface»&lt;br&gt;&lt;b&gt;ReprodutorMusivacal&lt;/b&gt;" style="html=1;whiteSpace=wrap;" vertex="1" parent="1">
          <mxGeometry x="40" y="230" width="160" height="50" as="geometry" />
        </mxCell>
        <mxCell id="uVfnnB60yYQLE5M0ZB12-24" value="«interface»&lt;br&gt;&lt;b&gt;AparelhoTelefonico&lt;/b&gt;" style="html=1;whiteSpace=wrap;" vertex="1" parent="1">
          <mxGeometry x="320" y="230" width="160" height="50" as="geometry" />
        </mxCell>
        <mxCell id="uVfnnB60yYQLE5M0ZB12-25" value="«interface»&lt;br&gt;&lt;b&gt;NavegadorInternet&lt;/b&gt;" style="html=1;whiteSpace=wrap;" vertex="1" parent="1">
          <mxGeometry x="600" y="230" width="160" height="50" as="geometry" />
        </mxCell>
        <mxCell id="uVfnnB60yYQLE5M0ZB12-45" value="iPhone&lt;div&gt;Funcoes&lt;/div&gt;" style="html=1;whiteSpace=wrap;" vertex="1" parent="1">
          <mxGeometry x="345" y="70" width="110" height="50" as="geometry" />
        </mxCell>
        <mxCell id="uVfnnB60yYQLE5M0ZB12-47" value="" style="endArrow=classic;html=1;rounded=0;" edge="1" parent="1">
          <mxGeometry width="50" height="50" relative="1" as="geometry">
            <mxPoint x="345" y="100" as="sourcePoint" />
            <mxPoint x="130" y="220" as="targetPoint" />
          </mxGeometry>
        </mxCell>
        <mxCell id="uVfnnB60yYQLE5M0ZB12-48" value="" style="endArrow=classic;html=1;rounded=0;" edge="1" parent="1">
          <mxGeometry width="50" height="50" relative="1" as="geometry">
            <mxPoint x="399.5" y="120" as="sourcePoint" />
            <mxPoint x="400" y="220" as="targetPoint" />
          </mxGeometry>
        </mxCell>
        <mxCell id="uVfnnB60yYQLE5M0ZB12-49" value="" style="endArrow=classic;html=1;rounded=0;" edge="1" parent="1">
          <mxGeometry width="50" height="50" relative="1" as="geometry">
            <mxPoint x="455" y="100" as="sourcePoint" />
            <mxPoint x="670" y="220" as="targetPoint" />
          </mxGeometry>
        </mxCell>
        <mxCell id="uVfnnB60yYQLE5M0ZB12-50" value="" style="endArrow=classic;html=1;rounded=0;" edge="1" parent="1">
          <mxGeometry width="50" height="50" relative="1" as="geometry">
            <mxPoint x="679.5" y="360" as="sourcePoint" />
            <mxPoint x="680" y="290" as="targetPoint" />
          </mxGeometry>
        </mxCell>
        <mxCell id="uVfnnB60yYQLE5M0ZB12-51" value="" style="endArrow=classic;html=1;rounded=0;" edge="1" parent="1">
          <mxGeometry width="50" height="50" relative="1" as="geometry">
            <mxPoint x="399.5" y="360" as="sourcePoint" />
            <mxPoint x="399.5" y="290" as="targetPoint" />
          </mxGeometry>
        </mxCell>
        <mxCell id="uVfnnB60yYQLE5M0ZB12-52" value="" style="endArrow=classic;html=1;rounded=0;" edge="1" parent="1">
          <mxGeometry width="50" height="50" relative="1" as="geometry">
            <mxPoint x="119.5" y="360" as="sourcePoint" />
            <mxPoint x="120" y="290" as="targetPoint" />
          </mxGeometry>
        </mxCell>
      </root>
    </mxGraphModel>
  </diagram>
</mxfile>
